<svg viewBox="0 0 307.78 289.11" xmlns="http://www.w3.org/2000/svg"><path d="m243.38 287.61s-12.92-1.55-32-35.15-40.38-42.38-62.58-42.9-58.4 3.62-75.46-17.56-2.58-33.08 8.79-46.52 42.9-22.74 56.33-16 41.87 20.16 18.09 40.32-13.43 23.77.52 22.74 38.76 1 50.65-6.2-4.65-6.21-12.4-8.79-19.13-14 20.15-5.17c18.09 3.1 15 24.81-5.16 30s-11.37 14.47 4.65 16 53.75-6.2 54.78-35.66-46.51-.52-18.09 9.3 42.9-15 52.72-43.93-19.12-99.78-68.22-49.09 9.82 54.78 23.77 35.66 40.32-64.6-5.17-84.76-82.17 1-77 26.87 17.05 54.23 31.52 64.57-9.82 30-37.21-1.55-18.06-51.69 30.49-66.16 46.52-51.68-2.06-63-84.25-3.15-64.09 58.37-24.81 32.28-26.4 23 25.32-20.67 38.76-36.7 53.24-52.71-1-53.75-124.55 22.21-124.04 70.27 103.45 22.42 70.28-14.47-92.5 10.86-92.5 47.04 25.33 70.8 65.12 45 1-55.82-29.46-27.91" fill="none" stroke="#ff3f45" stroke-linecap="round" stroke-linejoin="round" stroke-width="3"/></svg>