<?xml version="1.0" encoding="UTF-8"?>
<svg width="308px" height="290px" viewBox="0 0 308 290" version="1.1" xmlns="http://www.w3.org/2000/svg" xmlns:xlink="http://www.w3.org/1999/xlink">
    <title>Brain2</title>
    <g id="页面-1" stroke="none" stroke-width="1" fill="none" fill-rule="evenodd" stroke-linecap="round" stroke-linejoin="round">
        <g id="Brain2" transform="translate(1.000000, 1.000000)" stroke="#FF3F45" stroke-width="3">
            <path d="M242.38,286.61 C242.38,286.61 229.46,285.06 210.38,251.46 C191.3,217.86 170,209.08 147.8,208.56 C125.6,208.04 89.4,212.18 72.34,191 C55.28,169.82 69.76,157.92 81.13,144.48 C92.5,131.04 124.03,121.74 137.46,128.48 C150.89,135.22 179.33,148.64 155.55,168.8 C131.77,188.96 142.12,192.57 156.07,191.54 C170.02,190.51 194.83,192.54 206.72,185.34 C218.61,178.14 202.07,179.13 194.32,176.55 C186.57,173.97 175.19,162.55 214.47,171.38 C232.56,174.48 229.47,196.19 209.31,201.38 C189.15,206.57 197.94,215.85 213.96,217.38 C229.98,218.91 267.71,211.18 268.74,181.72 C269.77,152.26 222.23,181.2 250.65,191.02 C279.07,200.84 293.55,176.02 303.37,147.09 C313.19,118.16 284.25,47.31 235.15,98 C186.05,148.69 244.97,152.78 258.92,133.66 C272.87,114.54 299.24,69.06 253.75,48.9 C208.26,28.74 171.58,49.9 176.75,75.77 C181.92,101.64 193.8,130 208.27,140.34 C222.74,150.68 198.45,170.34 171.06,138.79 C143.67,107.24 153,87.1 201.55,72.63 C250.1,58.16 248.07,20.95 199.49,9.63 C150.91,-1.69 115.24,6.48 135.4,68 C155.56,129.52 110.59,100.28 109,91 C107.41,81.72 134.32,70.33 147.76,54.3 C161.2,38.27 201,1.59 146.76,0.55 C92.52,-0.49 22.21,22.76 22.72,70.82 C23.23,118.88 126.17,93.24 93,56.35 C59.83,19.46 0.5,67.21 0.5,103.39 C0.5,139.57 25.83,174.19 65.62,148.39 C105.41,122.59 66.62,92.57 36.16,120.48" id="路径"></path>
        </g>
    </g>
</svg>