<svg height="600" preserveAspectRatio="xMidYMid meet" viewBox="0 0 600 449.999984" width="800" xmlns="http://www.w3.org/2000/svg" xmlns:xlink="http://www.w3.org/1999/xlink" zoomAndPan="magnify"><clipPath id="a"><path d="m157.21875 125.6875h180v180h-180zm0 0"/></clipPath><g clip-path="url(#a)"><path d="m309.9375 213.945312c-4.171875-.347656-7.824219-.71875-11.167969-1.128906-3.582031-.441406-6.746093-.917968-9.671875-1.460937-12.398437-2.304688-20.4375-5.84375-26.070312-11.476563-5.632813-5.632812-9.171875-13.671875-11.472656-26.070312-.542969-2.925782-1.023438-6.085938-1.464844-9.671875-.410156-3.34375-.78125-6.996094-1.128906-11.167969-.710938-8.449219-1.253907-18.105469-1.738282-27.28125h-.007812c-.484375 9.175781-1.027344 18.832031-1.738282 27.28125-.351562 4.171875-.722656 7.824219-1.132812 11.167969-.4375 3.582031-.917969 6.746093-1.460938 9.671875-2.300781 12.398437-5.839843 20.4375-11.472656 26.070312-5.632812 5.632813-13.671875 9.171875-26.070312 11.476563-2.925782.542969-6.089844 1.019531-9.671875 1.460937-3.347657.410156-7 .78125-11.167969 1.128906-8.449219.710938-18.105469 1.257813-27.28125 1.738282v.011718c9.175781.480469 18.832031 1.027344 27.28125 1.734376 4.167969.351562 7.820312.722656 11.167969 1.132812 3.582031.4375 6.746093.917969 9.671875 1.460938 12.398437 2.300781 20.4375 5.839843 26.070312 11.472656 5.632813 5.632812 9.171875 13.675781 11.472656 26.070312.542969 2.925782 1.023438 6.089844 1.460938 9.671875.410156 3.347657.78125 7 1.132812 11.167969.710938 8.449219 1.253907 18.105469 1.738282 27.285156h.007812c.484375-9.175781 1.027344-18.832031 1.738282-27.285156.347656-4.167969.71875-7.820312 1.128906-11.167969.441406-3.582031.921875-6.746093 1.464844-9.671875 2.300781-12.398437 5.839843-20.4375 11.472656-26.070312 5.632812-5.632813 13.671875-9.171875 26.070312-11.472656 2.925782-.542969 6.085938-1.019532 9.671875-1.460938 3.34375-.410156 6.996094-.78125 11.167969-1.132812 8.449219-.707032 18.105469-1.253907 27.28125-1.734376v-.011718c-9.175781-.480469-18.832031-1.027344-27.28125-1.738282zm0 0"/></g></svg>